<svg width="88" height="35" viewBox="0 0 88 35" fill="none" xmlns="http://www.w3.org/2000/svg">
<mask id="mask0_1_215" style="mask-type:luminance" maskUnits="userSpaceOnUse" x="0" y="8" width="88" height="20">
<path d="M88 8H0V27.9091H88V8Z" fill="white"/>
</mask>
<g mask="url(#mask0_1_215)">
<path d="M78.0086 25.2553C82.045 25.2553 85.2814 21.9917 85.2814 17.9553C85.2814 13.9189 82.045 10.6826 78.0086 10.6826C73.9723 10.6826 70.7359 13.9462 70.7359 17.9553C70.745 21.9553 74.0086 25.2553 78.0086 25.2553ZM68.0995 8.03711H87.9541V27.8917H68.0995V8.03711Z" fill="#535E6D"/>
<path fill-rule="evenodd" clip-rule="evenodd" d="M39.1178 20.9644C37.9542 23.4917 35.4269 25.2553 32.4724 25.2553C28.5542 25.2553 25.3451 22.128 25.1997 18.2371H42.4087V8.03711H22.5633V27.8917H42.4178V20.9644H39.1178ZM25.5178 15.7917H39.3815C38.3633 12.4098 35.636 10.6826 32.4815 10.6826C29.3269 10.6826 26.3906 12.528 25.5178 15.7917Z" fill="#535E6D"/>
<path d="M19.891 8.03711H0.036438V27.8917H19.891V20.9644H16.6001C15.4637 23.4917 12.9092 25.2553 9.98189 25.2553C5.94553 25.2553 2.68189 21.9644 2.68189 17.9553C2.68189 13.9462 5.94553 10.6826 9.98189 10.6826C12.9637 10.6826 15.5183 12.5007 16.6546 15.0826H19.891V8.03711Z" fill="#535E6D"/>
<path d="M65.6178 20.9644H62.3269C61.336 23.5735 58.6633 25.228 55.6269 25.228C51.7087 25.228 48.4087 22.3917 48.4087 17.9553V8.03711H45.0542V27.8917H65.6178V20.9644Z" fill="#535E6D"/>
</g>
</svg>
