<svg width="95" height="35" viewBox="0 0 95 35" fill="none" xmlns="http://www.w3.org/2000/svg">
<g clip-path="url(#clip0_64_360)">
<path d="M58.8928 15.4001H53.3241V33.7328H58.8928V15.4001Z" fill="#535E6D"/>
<path d="M72.7251 23.6823C71.9077 23.3053 70.8987 22.9542 69.6853 22.5772C69.0467 22.3561 68.4975 22.1741 68.0633 22.0051C67.6162 21.8491 67.2714 21.654 67.0287 21.407C66.7605 21.186 66.6583 20.8999 66.6583 20.5749C66.6583 20.2498 66.786 20.0028 67.0798 19.7688C67.348 19.5217 67.7439 19.4177 68.2421 19.4177C68.7402 19.4177 69.2255 19.6127 69.5448 19.9508C69.7875 20.2238 69.9408 20.5489 70.0685 20.9259H75.5478C75.4201 19.8208 75.0752 18.8196 74.4622 17.9615C73.8491 17.0774 73.0061 16.3753 71.946 15.8552C70.8604 15.3481 69.6215 15.1011 68.191 15.1011C66.7605 15.1011 65.3555 15.3481 64.2954 15.8032C63.2098 16.2582 62.4179 16.9083 61.8559 17.7145C61.3323 18.5466 61.0385 19.4697 61.0385 20.4969C61.0385 21.524 61.3323 22.5512 61.8815 23.2793C62.4435 24.0074 63.1204 24.5795 63.925 24.9825C64.7169 25.3856 65.7259 25.7886 66.9138 26.1657C67.5779 26.4127 68.1271 26.6208 68.5869 26.8158C69.0339 27.0108 69.4043 27.2189 69.6726 27.4919C69.9408 27.7649 70.0685 28.025 70.0685 28.376C70.0685 28.7271 69.9152 29.0261 69.6215 29.2602C69.3277 29.4942 68.8807 29.6372 68.2676 29.6372C67.6545 29.6372 67.1309 29.4422 66.7349 29.1041C66.4412 28.8571 66.2624 28.532 66.1219 28.155H60.6426C60.7703 29.2602 61.1152 30.2353 61.7027 31.0934C62.3413 32.0166 63.1843 32.7447 64.321 33.2777C65.4322 33.8108 66.7605 34.0579 68.2932 34.0579C69.8258 34.0579 71.2819 33.8108 72.393 33.3298C73.5042 32.8487 74.3472 32.1726 74.9092 31.3015C75.4712 30.4303 75.7266 29.4422 75.7266 28.285C75.7266 27.1278 75.4328 26.1267 74.8581 25.3726C74.2706 24.6445 73.5553 24.0724 72.7634 23.6953L72.7124 23.6693H72.7251V23.6823Z" fill="#535E6D"/>
<path d="M42.7614 9.32825L37.1927 15.4001V33.7328H51.6382V28.129H42.7614V9.32825Z" fill="#535E6D"/>
<path d="M88.269 24.4885L94.0931 15.4001H87.873L82.994 23.0323V9.32825L77.4381 15.4001V33.7328H82.994V25.9447L88.3456 33.7328H94.5657L88.269 24.4885Z" fill="#535E6D"/>
<path d="M14.1772 0.0578613L10.8691 5.63568L21.7511 23.7863L12.6445 33.7328H20.3589L28.8269 24.4885L14.1772 0.0578613Z" fill="#535E6D"/>
<path d="M10.6264 28.129L6.65427 23.7864L13.3342 12.6177L10.0006 7.06592L-0.434326 24.4885L8.03368 33.7328H10.8436L16.0036 28.129H10.6264Z" fill="#535E6D"/>
</g>
<defs>
<clipPath id="clip0_64_360">
<rect width="95" height="34" fill="white" transform="translate(0 0.5)"/>
</clipPath>
</defs>
</svg>
