<svg width="52" height="40" viewBox="0 0 52 40" fill="none" xmlns="http://www.w3.org/2000/svg">
<g clip-path="url(#clip0_4_127)">
<path d="M8.30418 0.92016H0C0.0659062 9.55387 0.0021047 27.8541 0.197719 31.962C0.395437 36.1141 5.60203 38.5526 8.30418 39.2776H22.3422V30.7757H9.09506L8.30418 29.5894V0.92016Z" fill="white"/>
<path d="M43.6958 39.0798L52 39.0798C51.9341 30.4461 51.9979 12.1459 51.8023 8.03802C51.6046 3.88593 46.398 1.4474 43.6958 0.722428L29.6578 0.722429L29.6578 9.22433L42.9049 9.22433L43.6958 10.4106L43.6958 39.0798Z" fill="white"/>
<path d="M23.3308 0.92016H14.8289V24.251H28.6692V39.2776H37.1711V15.5513H23.3308V0.92016Z" fill="white"/>
</g>
<defs>
<clipPath id="clip0_4_127">
<rect width="52" height="38.5551" fill="white" transform="translate(0 0.722433)"/>
</clipPath>
</defs>
</svg>
